# xmcd
#
# Track frame offsets:
#	150
#	18049
#	37440
#	75341
#	95520
#	118577
#	142232
#
# Disc length: 2162 seconds
#
# Revision: 0
# Processed by: cddbd v1.5.1PL2 Copyright (c) Steve Scherf et al.
# Submitted via: EasyCDDAExtractor 9.0.0.1
#
DISCID=57087007
DTITLE=Smokin' Joe Kowalski und Freunde - Blues auf Bergisch
DYEAR=2005
DGENRE=Blues
TTITLE0=Man nennt mich Smokin' Joe Kowalski
TTITLE1=Smokin' Joe Kowalski is back in town
TTITLE2=Ich hab dich satt
TTITLE3=Aldi Slalom
TTITLE4=Blues auf Bergisch
TTITLE5=Zivilisiert
TTITLE6=Wenn ich die Kohle hab' (Live)
EXTD=
EXTT0=
EXTT1=
EXTT2=
EXTT3=
EXTT4=
EXTT5=
EXTT6=
PLAYORDER=
